<svg width="70" height="70" viewBox="0 0 71 70" fill="none" xmlns="http://www.w3.org/2000/svg">
<circle cx="35.333" cy="35" r="35" fill="#FFAA5C"/>
<ellipse cx="35.333" cy="35" rx="25.1562" ry="25.1562" fill="#CE7430"/>
<path d="M35.3383 48.1506C33.3994 48.1506 31.6801 47.8191 30.1803 47.1563C28.6888 46.4851 27.5122 45.5612 26.6505 44.3846C25.7887 43.208 25.3496 41.8532 25.333 40.3203H31.5226C31.5475 40.8755 31.7256 41.3685 32.0571 41.7994C32.3885 42.2219 32.8401 42.5534 33.4118 42.7937C33.9836 43.034 34.634 43.1541 35.3632 43.1541C36.0924 43.1541 36.7345 43.0257 37.2897 42.7688C37.8531 42.5037 38.2923 42.1432 38.6072 41.6875C38.922 41.2235 39.0753 40.6932 39.067 40.0966C39.0753 39.5 38.9055 38.9697 38.5574 38.5057C38.2094 38.0417 37.7164 37.6812 37.0784 37.4244C36.4487 37.1675 35.7029 37.0391 34.8412 37.0391H32.3678V32.6641H34.8412C35.5952 32.6641 36.2581 32.5398 36.8298 32.2912C37.4098 32.0426 37.8614 31.6946 38.1846 31.2472C38.5077 30.7914 38.6652 30.2694 38.6569 29.6811C38.6652 29.1094 38.5284 28.6081 38.2467 28.1772C37.9733 27.738 37.588 27.3983 37.0908 27.158C36.6019 26.9177 36.0344 26.7976 35.3881 26.7976C34.7086 26.7976 34.0913 26.9177 33.5361 27.158C32.9893 27.3983 32.5542 27.738 32.2311 28.1772C31.9079 28.6164 31.7381 29.1259 31.7215 29.706H25.8426C25.8592 28.1896 26.2818 26.8556 27.1104 25.7038C27.939 24.5438 29.0658 23.6365 30.491 22.9819C31.9245 22.3273 33.5568 22 35.3881 22C37.211 22 38.8143 22.319 40.1981 22.957C41.5818 23.5951 42.659 24.4651 43.4296 25.5671C44.2002 26.6609 44.5855 27.8996 44.5855 29.2834C44.5938 30.7169 44.1256 31.8976 43.181 32.8256C42.2447 33.7537 41.0391 34.3254 39.5642 34.5408V34.7397C41.5363 34.9717 43.0236 35.6097 44.0262 36.6538C45.0371 37.6978 45.5384 39.0028 45.5301 40.5689C45.5301 42.0438 45.0951 43.353 44.2251 44.4964C43.3633 45.6316 42.1618 46.5265 40.6207 47.1811C39.0877 47.8274 37.327 48.1506 35.3383 48.1506Z" fill="#FFAA5C"/>
</svg>
