<svg width="70" height="70" viewBox="0 0 70 70" fill="none" xmlns="http://www.w3.org/2000/svg">
<g clip-path="url(#clip0_35_644)">
<circle cx="35" cy="35" r="35" fill="#434289"/>
<path d="M50.0696 29.6361C50.4895 21.977 48.079 15.2004 39.7317 13.272C34.0282 11.954 28.4141 15.5348 24.0947 21.6387C20.9378 15.6825 12.019 21.2772 12.5672 26.4053C12.9676 30.1493 14.3906 28.1976 17.116 26.6658C19.1066 25.5499 20.1135 27.9604 19.3165 30.7986C19.126 31.304 18.9394 31.8133 18.7644 32.3343C15.5219 41.8946 11.7196 47.462 14.7094 48.745C18.7839 50.4945 20.6617 45.5453 22.4113 51.1905C24.0792 56.5752 27.8465 55.3544 32.5081 52.4696C34.4753 51.2488 35.3812 61.0501 40.1283 56.1397C42.1772 54.0208 47.8418 41.3619 47.9274 41.3503C47.9274 41.3503 51.6325 34.5154 53.0944 37.2797C54.5562 40.0439 54.3074 43.0726 56.6712 40.145C59.8165 36.2494 55.6954 27.1479 50.0696 29.64V29.6361Z" fill="#FFFAEF"/>
<path d="M45.6448 23.2755C45.6448 23.2755 46.3446 21.3199 44.3657 21.1643C42.3868 21.0088 42.0874 24.7878 43.7125 24.8151C45.3377 24.8423 45.6448 23.2755 45.6448 23.2755Z" fill="#2D1D26"/>
<path d="M35.6966 19.7027C35.6966 19.7027 36.3964 17.7471 34.4175 17.5916C32.4385 17.4361 32.1392 21.2151 33.7643 21.2423C35.3894 21.2695 35.6966 19.7027 35.6966 19.7027Z" fill="#2D1D26"/>
<path d="M39.7783 27.206C39.7783 27.206 40.5481 24.7605 38.5342 23.9013C36.5203 23.0421 33.6783 26.2613 35.5872 28.7029C37.1346 30.6779 39.7006 28.9167 39.7783 27.2099V27.206Z" fill="#2D1D26"/>
</g>
<defs>
<clipPath id="clip0_35_644">
<rect width="70" height="70" fill="white"/>
</clipPath>
</defs>
</svg>
