<svg width="25" height="24" viewBox="0 0 25 24" fill="none" xmlns="http://www.w3.org/2000/svg">
<g clip-path="url(#clip0_157_87)">
<path d="M12.2004 1.19995C6.23508 1.19995 1.40039 6.03464 1.40039 12C1.40039 17.9653 6.23508 22.7999 12.2004 22.7999C18.1657 22.7999 23.0004 17.9653 23.0004 12C23.0004 6.03464 18.1657 1.19995 12.2004 1.19995ZM12.2004 6.59995C12.9458 6.59995 13.5504 7.2045 13.5504 7.94995C13.5504 8.6954 12.9458 9.29995 12.2004 9.29995C11.4549 9.29995 10.8504 8.69667 10.8504 7.94995C10.8504 7.20323 11.4537 6.59995 12.2004 6.59995ZM13.8879 17.4H10.5129C9.95601 17.4 9.50039 16.9485 9.50039 16.3875C9.50039 15.8264 9.95391 15.375 10.5129 15.375H11.1879V12.675H10.8504C10.2914 12.675 9.83789 12.2214 9.83789 11.6625C9.83789 11.1035 10.2935 10.65 10.8504 10.65H12.2004C12.7594 10.65 13.2129 11.1035 13.2129 11.6625V15.375H13.8879C14.4469 15.375 14.9004 15.8285 14.9004 16.3875C14.9004 16.9464 14.449 17.4 13.8879 17.4Z" fill="white"/>
</g>
<defs>
<clipPath id="clip0_157_87">
<rect width="21.6" height="21.6" fill="white" transform="translate(1.40039 1.19995)"/>
</clipPath>
</defs>
</svg>
