<svg width="40" height="40" viewBox="0 0 40 40" fill="none" xmlns="http://www.w3.org/2000/svg">
<mask id="mask0_73_2605" style="mask-type:luminance" maskUnits="userSpaceOnUse" x="2" y="6" width="29" height="30">
<path d="M29.7768 21.8336L24.2856 8.57921C23.8322 7.48259 22.8712 6.67248 21.7131 6.41215C20.5536 6.14766 19.3374 6.47087 18.4563 7.26753L8.24738 16.5102L4.45596 18.0808C2.42861 18.9215 1.46362 21.2539 2.30285 23.2798L3.83669 26.9827C4.47137 28.5133 5.95603 29.4389 7.51949 29.4389C7.86839 29.4389 8.21925 29.3741 8.56717 29.2782L10.7151 34.4623C11.1115 35.4202 12.0417 36 13.0197 36C13.337 36 13.6583 35.9391 13.9693 35.8102L16.1194 34.9188C16.7348 34.6651 17.2141 34.1863 17.4681 33.5712C17.7233 32.9563 17.7233 32.2796 17.4681 31.6649L15.7104 27.4226L26.5811 26.8824C27.7663 26.8234 28.8531 26.1894 29.4878 25.1868C30.1227 24.1841 30.2301 22.9309 29.7768 21.8336ZM8.79741 26.3639C8.79741 26.3639 8.79618 26.3639 8.79545 26.3641C8.79471 26.3641 8.79447 26.3651 8.79374 26.3654L8.02082 26.6854C7.34846 26.9653 6.56747 26.6433 6.28757 25.9673L4.75372 22.2644C4.47406 21.5889 4.79654 20.8123 5.47159 20.5317L8.24861 19.3815L9.52335 22.4582L10.7981 25.5352L8.79741 26.3639ZM13.1039 33.2971L11.0366 28.3078L12.8274 27.566L12.8966 27.5625L14.9551 32.5303L13.1039 33.2971ZM27.2469 23.7677C27.0695 24.0469 26.7793 24.2164 26.449 24.2333L13.3992 24.8817L12.6003 22.9537L10.5497 18.0042L20.2363 9.23468C20.4812 9.01326 20.8076 8.92713 21.1301 8.99955C21.4513 9.07222 21.7077 9.28851 21.8347 9.59411L27.3259 22.8485C27.4516 23.1536 27.423 23.4885 27.2469 23.7677Z" fill="white"/>
</mask>
<g mask="url(#mask0_73_2605)">
<path d="M30.492 -0.602051H20.3271V9.56283H30.492V-0.602051Z" fill="#861B2F"/>
<path d="M30.492 9.56274H20.3271V19.7276H30.492V9.56274Z" fill="#861B2F"/>
<path d="M30.492 19.7273H20.3271V29.8922H30.492V19.7273Z" fill="#861B2F"/>
<path d="M30.492 29.8923H20.3271V40.0572H30.492V29.8923Z" fill="#861B2F"/>
<path d="M20.327 -0.602051H10.1621V9.56283H20.327V-0.602051Z" fill="#861B2F"/>
<path d="M20.327 9.56274H10.1621V19.7276H20.327V9.56274Z" fill="#861B2F"/>
<path d="M20.327 19.7278H10.1621V29.8927H20.327V19.7278Z" fill="#861B2F"/>
<path d="M20.327 29.8923H10.1621V40.0572H20.327V29.8923Z" fill="#861B2F"/>
<path d="M10.1619 -0.602051H-0.00292969V9.56283H10.1619V-0.602051Z" fill="#861B2F"/>
<path d="M10.1619 9.56274H-0.00292969V19.7276H10.1619V9.56274Z" fill="#861B2F"/>
<path d="M10.1619 19.7273H-0.00292969V29.8922H10.1619V19.7273Z" fill="#861B2F"/>
<path d="M10.1619 29.8923H-0.00292969V40.0572H10.1619V29.8923Z" fill="#861B2F"/>
<path d="M20.327 9.56274H10.1621V19.7276H20.327V9.56274Z" fill="#861B2F"/>
<path d="M20.327 19.7278H10.1621V29.8927H20.327V19.7278Z" fill="#861B2F"/>
<path d="M10.1619 9.56274H-0.00292969V19.7276H10.1619V9.56274Z" fill="#861B2F"/>
<path d="M10.1619 19.7273H-0.00292969V29.8922H10.1619V19.7273Z" fill="#861B2F"/>
<path d="M20.327 19.7278H10.1621V29.8927H20.327V19.7278Z" fill="#861B2F"/>
<path d="M20.327 29.8923H10.1621V40.0572H20.327V29.8923Z" fill="#861B2F"/>
<path d="M30.492 -0.602051H20.3271V9.56283H30.492V-0.602051Z" fill="#861B2F"/>
<path d="M30.492 9.56274H20.3271V19.7276H30.492V9.56274Z" fill="#861B2F"/>
<path d="M30.492 19.7273H20.3271V29.8922H30.492V19.7273Z" fill="#861B2F"/>
<path d="M20.327 -0.602051H10.1621V9.56283H20.327V-0.602051Z" fill="#861B2F"/>
<path d="M20.327 9.56274H10.1621V19.7276H20.327V9.56274Z" fill="#861B2F"/>
<path d="M20.327 19.7278H10.1621V29.8927H20.327V19.7278Z" fill="#861B2F"/>
</g>
<mask id="mask1_73_2605" style="mask-type:luminance" maskUnits="userSpaceOnUse" x="30" y="17" width="9" height="3">
<path d="M38.6995 18.675C38.6684 19.3875 38.0814 19.9439 37.3756 19.9439C37.3562 19.9439 37.3354 19.9432 37.3159 19.9424L32.0153 19.7107C31.2835 19.6789 30.7161 19.0592 30.7484 18.3278C30.7807 17.596 31.4102 17.0343 32.1318 17.0602L37.4326 17.2921C38.1644 17.3239 38.7318 17.9437 38.6995 18.675Z" fill="white"/>
</mask>
<g mask="url(#mask1_73_2605)">
<path d="M40.6561 9.56274H30.4912V19.7276H40.6561V9.56274Z" fill="#FEFEFD"/>
<path d="M40.6561 19.7278H30.4912V29.8927H40.6561V19.7278Z" fill="#FEFEFD"/>
</g>
<mask id="mask2_73_2605" style="mask-type:luminance" maskUnits="userSpaceOnUse" x="30" y="10" width="8" height="6">
<path d="M37.0311 13.0171L32.1282 15.0476C31.9623 15.1161 31.79 15.1492 31.6205 15.1492C31.101 15.1492 30.6061 14.8401 30.3949 14.3298C30.1152 13.653 30.4365 12.8771 31.1125 12.5967L36.0157 10.5662C36.6893 10.287 37.4691 10.6068 37.749 11.2838C38.0287 11.9606 37.7074 12.7365 37.0311 13.0171Z" fill="white"/>
</mask>
<g mask="url(#mask2_73_2605)">
<path d="M40.6571 9.56274H30.4922V19.7276H40.6571V9.56274Z" fill="#FEFEFD"/>
<path d="M30.493 9.56274H20.3281V19.7276H30.493V9.56274Z" fill="#FEFEFD"/>
</g>
<mask id="mask3_73_2605" style="mask-type:luminance" maskUnits="userSpaceOnUse" x="27" y="5" width="7" height="7">
<path d="M33.3235 7.26431L29.5719 11.0159C29.3128 11.275 28.9735 11.4044 28.6341 11.4044C28.2947 11.4044 27.9554 11.275 27.6963 11.0159C27.1781 10.4976 27.1781 9.65818 27.6963 9.13996L31.4478 5.38866C31.9658 4.87045 32.8053 4.87045 33.3235 5.38866C33.8417 5.90687 33.8417 6.7461 33.3235 7.26431Z" fill="white"/>
</mask>
<g mask="url(#mask3_73_2605)">
<path d="M40.6571 -0.602051H30.4922V9.56283H40.6571V-0.602051Z" fill="#FEFEFD"/>
<path d="M40.6571 9.56274H30.4922V19.7276H40.6571V9.56274Z" fill="#FEFEFD"/>
<path d="M30.493 -0.602051H20.3281V9.56283H30.493V-0.602051Z" fill="#FEFEFD"/>
<path d="M30.493 9.56274H20.3281V19.7276H30.493V9.56274Z" fill="#FEFEFD"/>
</g>
<mask id="mask4_73_2605" style="mask-type:luminance" maskUnits="userSpaceOnUse" x="10" y="8" width="18" height="17">
<path d="M27.2469 23.7676C27.0695 24.0468 26.7794 24.2163 26.449 24.2332L13.3992 24.8816L12.6004 22.9536L10.5498 18.0041L20.2364 9.23459C20.4813 9.01316 20.8077 8.92704 21.1301 8.99946C21.4514 9.07213 21.7078 9.28842 21.8348 9.59401L27.326 22.8484C27.4517 23.1535 27.4231 23.4884 27.2469 23.7676Z" fill="white"/>
</mask>
<g mask="url(#mask4_73_2605)">
<path d="M30.492 -0.602051H20.3271V9.56283H30.492V-0.602051Z" fill="#FEFEFD"/>
<path d="M30.492 9.56274H20.3271V19.7276H30.492V9.56274Z" fill="#FEFEFD"/>
<path d="M30.492 19.7278H20.3271V29.8927H30.492V19.7278Z" fill="#FEFEFD"/>
<path d="M20.326 -0.602051H10.1611V9.56283H20.326V-0.602051Z" fill="#FEFEFD"/>
<path d="M20.326 9.56274H10.1611V19.7276H20.326V9.56274Z" fill="#FEFEFD"/>
<path d="M20.326 19.7278H10.1611V29.8927H20.326V19.7278Z" fill="#FEFEFD"/>
</g>
<mask id="mask5_73_2605" style="mask-type:luminance" maskUnits="userSpaceOnUse" x="4" y="19" width="7" height="8">
<path d="M10.7975 25.5351L8.79682 26.3638C8.79682 26.3638 8.7956 26.3638 8.79486 26.364C8.79413 26.364 8.79388 26.365 8.79315 26.3653L8.02023 26.6853C7.34788 26.9652 6.56688 26.6432 6.28698 25.9672L4.75313 22.2643C4.47347 21.5888 4.79595 20.8122 5.471 20.5315L8.24802 19.3813L9.52276 22.4581L10.7975 25.5351Z" fill="white"/>
</mask>
<g mask="url(#mask5_73_2605)">
<path d="M20.326 9.56274H10.1611V19.7276H20.326V9.56274Z" fill="#A82738"/>
<path d="M20.326 19.7278H10.1611V29.8927H20.326V19.7278Z" fill="#A82738"/>
<path d="M10.161 9.56274H-0.00390625V19.7276H10.161V9.56274Z" fill="#A82738"/>
<path d="M10.161 19.7278H-0.00390625V29.8927H10.161V19.7278Z" fill="#A82738"/>
</g>
<mask id="mask6_73_2605" style="mask-type:luminance" maskUnits="userSpaceOnUse" x="11" y="27" width="4" height="7">
<path d="M14.9555 32.5303L13.1043 33.2971L11.0371 28.3078L12.8279 27.5659L12.8971 27.5625L14.9555 32.5303Z" fill="white"/>
</mask>
<g mask="url(#mask6_73_2605)">
<path d="M20.327 19.7278H10.1621V29.8927H20.327V19.7278Z" fill="#A82738"/>
<path d="M20.327 29.8926H10.1621V40.0575H20.327V29.8926Z" fill="#A82738"/>
</g>
</svg>
