<svg width="70" height="70" viewBox="0 0 71 70" fill="none" xmlns="http://www.w3.org/2000/svg">
<circle cx="35.667" cy="35" r="35" fill="#929292"/>
<ellipse cx="35.667" cy="35" rx="25.1562" ry="25.1562" fill="#CECECE"/>
<path d="M26.0357 47V42.8844L35.2162 35.3237C35.9044 34.738 36.4902 34.2023 36.9736 33.7168C37.457 33.2235 37.8257 32.7303 38.0797 32.237C38.3337 31.736 38.4607 31.1927 38.4607 30.6069C38.4607 29.9518 38.3091 29.3931 38.0059 28.9306C37.7028 28.4605 37.2849 28.0983 36.7524 27.8439C36.2198 27.5896 35.6094 27.4624 34.9212 27.4624C34.2248 27.4624 33.6144 27.5973 33.09 27.8671C32.5657 28.1291 32.156 28.5106 31.861 29.0116C31.5743 29.5125 31.4309 30.1214 31.4309 30.8381H25.667C25.667 29.2274 26.0521 27.8362 26.8222 26.6647C27.5924 25.4933 28.6739 24.5915 30.0667 23.9595C31.4678 23.3198 33.0941 23 34.9458 23C36.8548 23 38.5139 23.3006 39.9231 23.9017C41.3324 24.5029 42.4221 25.343 43.1922 26.422C43.9706 27.4933 44.3597 28.738 44.3597 30.1561C44.3597 31.0578 44.1672 31.9518 43.7821 32.8382C43.397 33.7245 42.7047 34.7033 41.7052 35.7746C40.7138 36.8459 39.3046 38.1291 37.4775 39.6243L34.4665 42.237V42.3873H44.667V47H26.0357Z" fill="#929292"/>
</svg>
