<svg width="70" height="70" viewBox="0 0 71 70" fill="none" xmlns="http://www.w3.org/2000/svg">
<g clip-path="url(#clip0_35_1362)">
<circle cx="35.667" cy="35" r="35" fill="#E90000"/>
<path d="M23.5826 23.8844L19.811 21.4004C19.8247 21.3822 19.8406 21.3617 19.8543 21.3412C20.702 20.0536 20.3443 18.3125 19.0567 17.4625C18.7148 17.2369 18.3411 17.0933 17.94 17.0318C16.8621 16.8677 15.7773 17.3485 15.178 18.2601C14.7655 18.8845 14.622 19.632 14.7746 20.3658C14.843 20.6939 14.8225 20.931 14.7199 21.0905C14.6151 21.25 14.4055 21.3594 14.075 21.4278C13.3435 21.5782 12.7122 22.0043 12.2998 22.6287C11.4497 23.9186 11.8098 25.6574 13.0974 26.5074C13.4369 26.7307 13.8129 26.8766 14.2117 26.9358C15.2897 27.0999 16.3744 26.6191 16.9738 25.7075C16.9874 25.687 16.9988 25.6665 17.0125 25.646L20.8411 28.1664C21.5156 26.6191 22.4363 25.1743 23.5803 23.8798L23.5826 23.8844Z" fill="white"/>
<path d="M47.6064 23.8844L51.378 21.4004C51.3643 21.3822 51.3484 21.3617 51.3347 21.3412C50.487 20.0536 50.8448 18.3125 52.1323 17.4625C52.4742 17.2369 52.8479 17.0933 53.249 17.0318C54.3269 16.8677 55.4117 17.3485 56.011 18.2601C56.4235 18.8845 56.5671 19.632 56.4144 20.3658C56.346 20.6939 56.3665 20.931 56.4713 21.0905C56.5762 21.25 56.7858 21.3594 57.114 21.4278C57.8478 21.5782 58.4768 22.0043 58.8892 22.6287C59.7393 23.9186 59.3792 25.6574 58.0916 26.5074C57.7521 26.7307 57.3761 26.8766 56.9773 26.9358C55.8993 27.0999 54.8146 26.6191 54.2152 25.7075C54.2016 25.687 54.1902 25.6665 54.1788 25.646L50.3502 28.1664C49.6757 26.6191 48.755 25.1743 47.611 23.8798L47.6064 23.8844Z" fill="white"/>
<path d="M49.1281 41.562C50.0237 39.6888 50.3792 37.8451 50.2447 34.6456C49.8869 26.159 44.1601 20.783 35.6803 20.7329C35.6757 20.7329 35.6347 20.7329 35.5937 20.7329C35.5527 20.7329 35.5117 20.7329 35.5071 20.7329C27.0273 20.783 21.3005 26.159 20.9427 34.6456C20.8082 37.8451 21.1615 39.6888 22.0594 41.562C22.367 42.2046 22.1437 43.3623 21.975 43.9754C21.877 44.3331 21.8269 44.716 21.8269 45.1171C21.8269 47.0427 23.5429 48.6038 25.6577 48.6038C26.1135 48.6038 26.4804 48.581 26.7721 48.5445C26.9954 48.5172 27.2575 48.4944 27.4945 48.5742C28.0027 48.7474 28.16 49.2624 28.1577 49.6247C28.1554 49.9552 28.1645 50.787 28.1645 50.787C28.1645 50.9305 28.1919 51.0878 28.3445 51.2291C28.5679 51.4365 28.8801 51.596 29.2515 51.6643C29.3609 51.6871 29.4794 51.6985 29.607 51.6985C29.8942 51.6985 30.1358 51.6507 30.35 51.5732C30.4161 51.5504 30.4639 51.5253 30.514 51.5071C30.8468 51.3681 30.9607 51.1926 30.9607 51.1926C31.0382 51.0878 31.0906 50.9305 31.0906 50.812V48.8727C31.0906 48.5947 31.3162 48.3668 31.5965 48.3668C31.8768 48.3668 32.1024 48.5947 32.1024 48.8727V50.7847C32.1024 50.9283 32.1754 51.1334 32.2825 51.2268C32.5833 51.4934 33.0254 51.6985 33.5632 51.6985C34.1398 51.6985 34.6069 51.482 34.9169 51.2063C35.024 51.1106 35.0946 50.9032 35.0946 50.7619V48.8727C35.0946 48.597 35.3157 48.3736 35.5914 48.3668C35.8672 48.3713 36.0882 48.5947 36.0882 48.8727V50.7619C36.0882 50.9055 36.1611 51.1106 36.266 51.2063C36.5759 51.482 37.0408 51.6985 37.6196 51.6985C38.1597 51.6985 38.5996 51.4934 38.9004 51.2268C39.0075 51.1334 39.0804 50.926 39.0804 50.7847V48.8727C39.0804 48.5947 39.306 48.3668 39.5863 48.3668C39.8666 48.3668 40.0922 48.5947 40.0922 48.8727V50.812C40.0922 50.9305 40.1424 51.0878 40.2221 51.1926C40.2221 51.1926 40.3384 51.3704 40.6711 51.5071C40.7212 51.5276 40.7714 51.5504 40.8352 51.5732C41.0494 51.6507 41.2909 51.6985 41.5781 51.6985C41.7057 51.6985 41.8242 51.6871 41.9336 51.6643C42.3028 51.596 42.6173 51.4342 42.8406 51.2291C42.9933 51.0878 43.0206 50.9283 43.0206 50.787C43.0206 50.787 43.0297 49.9552 43.0275 49.6247C43.0252 49.2601 43.1824 48.7451 43.6906 48.5742C43.9276 48.4944 44.1897 48.5172 44.413 48.5445C44.707 48.5787 45.0716 48.6038 45.5274 48.6038C47.6445 48.6038 49.3605 47.0427 49.3605 45.1171C49.3605 44.7183 49.3104 44.3331 49.2124 43.9754C49.0437 43.3623 48.8204 42.2046 49.1281 41.562ZM32.7929 38.5835C32.5491 40.9148 30.4525 42.6126 28.1212 42.3687C26.3779 42.1864 24.9877 40.9581 24.4978 39.3811C24.3382 38.8547 24.2744 38.2781 24.336 37.697C24.5798 35.3657 26.0816 34.3858 28.4129 34.6296C30.7442 34.8734 33.0368 36.2522 32.7929 38.5835ZM37.7473 45.6025C37.6105 45.7711 37.3279 45.8646 37.1365 45.8646C36.4506 45.8646 35.8786 45.4908 35.8786 45.4908C35.8239 45.4521 35.7213 45.4065 35.596 45.4019C35.4706 45.4042 35.3681 45.4521 35.3134 45.4908C35.3134 45.4908 34.7391 45.8646 34.0532 45.8646C33.8617 45.8646 33.5769 45.7711 33.4424 45.6025C33.308 45.4338 33.2328 45.2082 33.2328 44.9712C33.2328 44.7342 33.308 44.5086 33.4424 44.34L35.0787 42.3026C35.2131 42.1363 35.3932 42.0428 35.5869 42.0428H35.5983H35.6097C35.8034 42.0428 35.9834 42.1363 36.1178 42.3026L37.7541 44.34C37.8908 44.5086 37.9638 44.7342 37.9638 44.9712C37.9638 45.2082 37.8885 45.4338 37.7541 45.6025H37.7473ZM46.6874 39.3811C46.1997 40.9581 44.8073 42.1864 43.0639 42.3687C40.7326 42.6126 38.6383 40.9148 38.3922 38.5835C38.1483 36.2522 40.4409 34.8734 42.7722 34.6296C45.1035 34.3858 46.603 35.3657 46.8492 37.697C46.9107 38.2781 46.8469 38.8547 46.6874 39.3811Z" fill="white"/>
<path d="M21.8522 44.647C21.8363 44.7997 21.8271 44.9569 21.8271 45.1164C21.8271 45.914 22.1234 46.6456 22.6202 47.2335L23.411 46.7117C22.8344 46.0599 22.3148 45.3694 21.8522 44.647Z" fill="white"/>
<path d="M19.6397 49.1961L21.3215 48.0885C20.6675 47.2544 20.2755 46.2289 20.2755 45.1191C20.2755 44.5813 20.3439 44.0594 20.4806 43.5672C20.6105 43.0954 20.6606 42.6898 20.6629 42.4346L16.8412 44.9505C16.8298 44.93 16.8184 44.9095 16.8025 44.8889C16.2031 43.9774 15.1184 43.4965 14.0405 43.6606C13.6394 43.7221 13.2656 43.8657 12.9261 44.0913C11.6362 44.9414 11.2784 46.6824 12.1285 47.97C12.5409 48.5944 13.1699 49.0206 13.9037 49.171C14.2319 49.2393 14.4415 49.3487 14.5464 49.5083C14.6512 49.6678 14.6694 49.9048 14.6033 50.2329C14.4529 50.9645 14.5965 51.7119 15.0067 52.3386C15.6061 53.2502 16.6908 53.731 17.7687 53.567C18.1698 53.5054 18.5436 53.3619 18.8854 53.1363C20.173 52.2862 20.533 50.5474 19.683 49.2576C19.6693 49.2371 19.6557 49.2166 19.6397 49.1983V49.1961Z" fill="white"/>
<path d="M48.5701 47.2335C49.0646 46.6456 49.3631 45.914 49.3631 45.1164C49.3631 44.9569 49.354 44.7997 49.3381 44.647C48.8777 45.3694 48.3581 46.0599 47.7793 46.7139L48.5701 47.2358V47.2335Z" fill="white"/>
<path d="M58.2643 44.0869C57.9247 43.8636 57.5487 43.7178 57.1499 43.6562C56.072 43.4921 54.9872 43.973 54.3879 44.8845C54.3742 44.9051 54.3628 44.9256 54.3514 44.9461L50.5297 42.4302C50.532 42.6854 50.5821 43.0911 50.712 43.5651C50.8487 44.0573 50.9171 44.5792 50.9171 45.117C50.9171 46.2291 50.5251 47.2546 49.8711 48.0887L51.5529 49.1962C51.5392 49.2144 51.5233 49.235 51.5096 49.2555C50.6619 50.5453 51.0197 52.2841 52.3072 53.1341C52.6491 53.3575 53.0228 53.5033 53.4239 53.5649C54.5018 53.7289 55.5866 53.2481 56.1859 52.3365C56.5984 51.7121 56.7397 50.9646 56.5893 50.2308C56.5209 49.9027 56.5414 49.6657 56.6462 49.5061C56.7511 49.3466 56.9607 49.2372 57.2889 49.1689C58.0227 49.0185 58.6517 48.5923 59.0642 47.9679C59.9142 46.678 59.5541 44.9392 58.2665 44.0892L58.2643 44.0869Z" fill="white"/>
</g>
<defs>
<clipPath id="clip0_35_1362">
<rect width="70" height="70" fill="white" transform="translate(0.666992)"/>
</clipPath>
</defs>
</svg>
